<svg width="138" height="147" viewBox="0 0 138 147" fill="none" xmlns="http://www.w3.org/2000/svg">
<path d="M68.9998 0L58.0349 43.1918C56.6971 48.4624 56.0278 51.0977 54.7076 53.2522C53.5392 55.1585 52.0067 56.7837 50.2088 58.0232C48.1779 59.4234 45.6932 60.1333 40.7237 61.5522L2.95639e-05 73.1815L40.7237 84.8109C45.6932 86.2298 48.1779 86.9397 50.2088 88.3399C52.0067 89.5791 53.5392 91.2045 54.7076 93.1113C56.0278 95.2653 56.6971 97.9006 58.0349 103.171L68.9998 146.363L79.9646 103.171C81.3024 97.9006 81.9717 95.2653 83.2919 93.1113C84.4606 91.2045 85.9929 89.5791 87.7903 88.3399C89.8217 86.9397 92.3064 86.2298 97.2758 84.8109L138 73.1815L97.2758 61.5522C92.3064 60.1333 89.8217 59.4234 87.7903 58.0232C85.9929 56.7837 84.4606 55.1585 83.2919 53.2522C81.9717 51.0977 81.3024 48.4624 79.9646 43.1918L68.9998 0Z" fill="#EDECEF"/>
</svg>
