<svg width="142" height="150" viewBox="0 0 142 150" fill="none" xmlns="http://www.w3.org/2000/svg">
<path d="M70.9993 2L60.0345 45.1918C58.6966 50.4624 58.0273 53.0977 56.7071 55.2522C55.5387 57.1585 54.0062 58.7837 52.2084 60.0232C50.1775 61.4234 47.6927 62.1333 42.7232 63.5522L1.99954 75.1815L42.7232 86.8109C47.6927 88.2298 50.1775 88.9397 52.2084 90.3399C54.0062 91.5791 55.5387 93.2045 56.7071 95.1113C58.0273 97.2653 58.6966 99.9006 60.0345 105.171L70.9993 148.363L81.9641 105.171C83.3019 99.9006 83.9712 97.2653 85.2914 95.1113C86.4601 93.2045 87.9925 91.5791 89.7898 90.3399C91.8212 88.9397 94.3059 88.2298 99.2753 86.8109L139.999 75.1815L99.2753 63.5522C94.3059 62.1333 91.8212 61.4234 89.7898 60.0232C87.9925 58.7837 86.4601 57.1585 85.2914 55.2522C83.9712 53.0977 83.3019 50.4624 81.9641 45.1918L70.9993 2Z" fill="#D9F6F5" stroke="#D9F6F5" stroke-width="2.65507" stroke-linecap="round" stroke-linejoin="round"/>
</svg>
