<svg width="507" height="112" viewBox="0 0 507 112" fill="none" xmlns="http://www.w3.org/2000/svg">
<path d="M42.5059 59.1104C44.6131 48.173 53.2426 41.751 66.2873 41.751C81.6398 41.751 89.7676 49.6781 89.7676 64.6293V82.7915C89.7676 85.9021 91.0721 86.7048 93.0789 86.7048H95.0858V96.1371L92.0755 96.2375C87.9614 96.2375 79.4322 96.3378 78.4288 88.1097C76.0206 93.3275 70 97.3412 60.7684 97.3412C50.132 97.3412 41.7031 91.6217 41.7031 82.1894C41.7031 71.854 49.3292 68.5427 61.7718 66.0341L76.723 63.0238C76.6226 54.9963 73.211 51.0829 66.2873 51.0829C60.668 51.0829 57.0557 54.0932 55.7512 59.9132L42.5059 59.1104ZM55.0488 81.788C55.0488 85.4004 58.0591 88.21 64.2804 88.21C71.5051 88.21 76.9237 82.9921 76.9237 72.4561V71.854L66.8893 73.6602C60.1663 74.9647 55.0488 75.6671 55.0488 81.788Z" fill="#E8E7EB"/>
<path d="M96.5588 69.5461C96.5588 52.6884 106.995 41.751 122.849 41.751C136.495 41.751 147.634 50.9826 147.834 69.8472L147.935 73.0581H110.105C110.707 81.8884 115.323 87.1062 122.849 87.1062C127.665 87.1062 131.98 84.397 133.887 79.7812L147.132 80.7846C144.021 91.0196 134.388 97.3412 122.849 97.3412C106.995 97.3412 96.5588 86.4038 96.5588 69.5461ZM110.306 64.4286H134.489C133.485 55.3977 128.468 51.986 122.849 51.986C115.825 51.986 111.309 56.7022 110.306 64.4286Z" fill="#E8E7EB"/>
<path d="M185.433 59.9132C184.53 54.6953 179.714 51.4843 174.697 51.4843C169.78 51.4843 165.866 54.0932 165.967 58.3077C166.067 62.6224 171.385 64.529 176.603 65.432C191.053 67.8403 199.18 71.6533 199.18 81.8884C199.18 92.4244 188.945 97.3412 176.503 97.3412C161.953 97.3412 152.119 90.5179 151.317 79.2794L164.462 78.577C165.465 84.0959 169.579 87.5076 176.302 87.5076C180.516 87.5076 185.835 85.9021 185.835 81.5873C185.734 76.4698 179.914 75.6671 174.496 74.463C161.451 71.854 152.521 68.5427 152.521 58.5084C152.521 48.0726 161.251 41.6507 175.399 41.6507C187.942 41.6507 196.872 48.474 198.578 59.3111L185.433 59.9132Z" fill="#E8E7EB"/>
<path d="M208.53 30.9139H221.575V42.9551H235.623V52.9895H221.575V79.7812C221.575 83.8952 223.582 86.0024 227.596 86.0024H235.623V96.1371H225.388C214.451 96.1371 208.53 90.6182 208.53 79.7812V52.9895H200.202V42.9551H208.53V30.9139Z" fill="#E8E7EB"/>
<path d="M235.991 42.9551H248.734L262.782 82.4904L276.429 42.9551H289.072L267.9 101.756C265.692 108.279 261.277 111.189 254.153 111.189H245.423V101.255H251.945C254.855 101.255 256.461 100.251 257.564 97.843L259.07 94.0299H255.257L235.991 42.9551Z" fill="#E8E7EB"/>
<path d="M325.389 62.5221C324.385 55.8994 319.669 52.2871 314.05 52.2871C305.822 52.2871 301.106 58.6087 301.106 69.5461C301.106 80.4836 305.822 86.8052 314.05 86.8052C319.97 86.8052 324.686 83.0925 325.69 75.9681L339.136 76.5702C337.631 89.4141 327.195 97.3412 314.05 97.3412C298.196 97.3412 287.76 86.4038 287.76 69.5461C287.76 52.6884 298.196 41.751 314.05 41.751C326.794 41.751 337.33 49.3771 338.734 61.8197L325.389 62.5221Z" fill="#E8E7EB"/>
<path d="M367.828 97.3412C351.974 97.3412 341.538 86.4038 341.538 69.5461C341.538 52.6884 351.974 41.751 367.828 41.751C383.682 41.751 394.118 52.6884 394.118 69.5461C394.118 86.4038 383.682 97.3412 367.828 97.3412ZM354.883 69.5461C354.883 80.4836 359.6 86.8052 367.828 86.8052C376.056 86.8052 380.772 80.4836 380.772 69.5461C380.772 58.6087 376.056 52.2871 367.828 52.2871C359.6 52.2871 354.883 58.6087 354.883 69.5461Z" fill="#E8E7EB"/>
<path d="M448.945 24.8933V96.1371H436.603L436.302 88.6114C433.392 94.0299 427.271 97.3412 420.046 97.3412C406.199 97.3412 397.569 86.6045 397.569 69.5461C397.569 52.4877 406.199 41.751 420.046 41.751C426.87 41.751 432.89 44.8616 435.901 50.0795V24.8933H448.945ZM410.915 69.5461C410.915 80.0822 416.033 86.9055 423.859 86.9055C431.787 86.9055 436.804 80.0822 436.804 69.5461C436.804 58.709 431.686 51.8857 423.859 51.8857C415.932 51.8857 410.915 58.709 410.915 69.5461Z" fill="#E8E7EB"/>
<path d="M454.875 69.5461C454.875 52.6884 465.311 41.751 481.165 41.751C494.812 41.751 505.95 50.9826 506.15 69.8472L506.251 73.0581H468.421C469.023 81.8884 473.639 87.1062 481.165 87.1062C485.981 87.1062 490.296 84.397 492.203 79.7812L505.448 80.7846C502.337 91.0196 492.704 97.3412 481.165 97.3412C465.311 97.3412 454.875 86.4038 454.875 69.5461ZM468.622 64.4286H492.805C491.801 55.3977 486.784 51.986 481.165 51.986C474.141 51.986 469.625 56.7022 468.622 64.4286Z" fill="#E8E7EB"/>
<path d="M23.6394 0L19.8829 14.7973C19.4245 16.603 19.1952 17.5058 18.7429 18.2439C18.3426 18.897 17.8176 19.4538 17.2017 19.8785C16.5059 20.3582 15.6546 20.6014 13.9521 21.0875L0.000386715 25.0716L13.9521 29.0558C15.6546 29.5419 16.5059 29.7851 17.2017 30.2648C17.8176 30.6893 18.3426 31.2462 18.7429 31.8995C19.1952 32.6374 19.4245 33.5403 19.8829 35.346L23.6394 50.1433L27.3958 35.346C27.8542 33.5403 28.0835 32.6374 28.5358 31.8995C28.9362 31.2462 29.4611 30.6893 30.0769 30.2648C30.7728 29.7851 31.6241 29.5419 33.3266 29.0558L47.2783 25.0716L33.3266 21.0875C31.6241 20.6014 30.7728 20.3582 30.0769 19.8785C29.4611 19.4538 28.9362 18.897 28.5358 18.2439C28.0835 17.5058 27.8542 16.603 27.3958 14.7973L23.6394 0Z" fill="#E8E7EB"/>
</svg>
