<svg width="338" height="132" viewBox="0 0 338 132" fill="none" xmlns="http://www.w3.org/2000/svg">
<path d="M51.2684 71.2188C53.7108 58.5413 63.7133 51.0976 78.8332 51.0976C96.6283 51.0976 106.049 60.2859 106.049 77.6157V98.6674C106.049 102.273 107.561 103.203 109.887 103.203H112.213V114.136L108.724 114.253C103.956 114.253 94.0695 114.369 92.9064 104.832C90.1151 110.88 83.1366 115.532 72.4363 115.532C60.1077 115.532 50.3379 108.902 50.3379 97.9695C50.3379 85.9898 59.1773 82.1517 73.5994 79.244L90.9292 75.7548C90.8129 66.4502 86.8584 61.9142 78.8332 61.9142C72.32 61.9142 68.1329 65.4034 66.6209 72.1492L51.2684 71.2188ZM65.8068 97.5043C65.8068 101.691 69.296 104.948 76.5071 104.948C84.8812 104.948 91.1618 98.9 91.1618 86.6877V85.9898L79.5311 88.0834C71.7385 89.5954 65.8068 90.4095 65.8068 97.5043Z" fill="#D9F6F5"/>
<path d="M113.921 83.3148C113.921 63.7751 126.017 51.0976 144.393 51.0976C160.211 51.0976 173.121 61.7979 173.354 83.6637L173.47 87.3855H129.622C130.32 97.6206 135.67 103.669 144.393 103.669C149.976 103.669 154.977 100.528 157.187 95.1781L172.54 96.3412C168.934 108.205 157.769 115.532 144.393 115.532C126.017 115.532 113.921 102.854 113.921 83.3148ZM129.855 77.3831H157.885C156.722 66.9154 150.907 62.961 144.393 62.961C136.252 62.961 131.018 68.4274 129.855 77.3831Z" fill="#D9F6F5"/>
<path d="M216.935 72.1492C215.888 66.1013 210.305 62.3794 204.49 62.3794C198.791 62.3794 194.255 65.4034 194.371 70.2883C194.487 75.2895 200.652 77.4994 206.7 78.5462C223.448 81.3375 232.869 85.7572 232.869 97.6206C232.869 109.833 221.006 115.532 206.583 115.532C189.719 115.532 178.321 107.623 177.39 94.5966L192.626 93.7824C193.79 100.179 198.558 104.134 206.351 104.134C211.236 104.134 217.4 102.273 217.4 97.2717C217.284 91.34 210.538 90.4095 204.257 89.0138C189.137 85.9898 178.786 82.1517 178.786 70.5209C178.786 58.425 188.905 50.9813 205.304 50.9813C219.842 50.9813 230.194 58.8902 232.171 71.4514L216.935 72.1492Z" fill="#D9F6F5"/>
<path d="M243.706 38.5364H258.826V52.4933H275.109V64.124H258.826V95.1781C258.826 99.9467 261.153 102.389 265.805 102.389H275.109V114.136H263.246C250.569 114.136 243.706 107.739 243.706 95.1781V64.124H234.053V52.4933H243.706V38.5364Z" fill="#D9F6F5"/>
<path d="M275.536 52.4933H290.307L306.59 98.3184L322.407 52.4933H337.062L312.521 120.649C309.963 128.209 304.845 131.582 296.587 131.582H286.468V120.068H294.028C297.401 120.068 299.262 118.905 300.542 116.113L302.286 111.694H297.867L275.536 52.4933Z" fill="#D9F6F5"/>
<path d="M29.4 2L25.0459 19.1515C24.5146 21.2444 24.2488 22.2909 23.7246 23.1464C23.2606 23.9034 22.652 24.5488 21.9381 25.041C21.1317 25.597 20.145 25.8789 18.1716 26.4424L2.00021 31.0604L18.1716 35.6784C20.145 36.2419 21.1317 36.5237 21.9381 37.0798C22.652 37.5719 23.2606 38.2173 23.7246 38.9745C24.2488 39.8299 24.5146 40.8764 25.0459 42.9693L29.4 60.1208L33.7541 42.9693C34.2854 40.8764 34.5512 39.8299 35.0754 38.9745C35.5395 38.2173 36.148 37.5719 36.8617 37.0798C37.6684 36.5237 38.6551 36.2419 40.6284 35.6784L56.7998 31.0604L40.6284 26.4424C38.6551 25.8789 37.6684 25.597 36.8617 25.041C36.148 24.5488 35.5395 23.9034 35.0754 23.1464C34.5512 22.2909 34.2854 21.2444 33.7541 19.1515L29.4 2Z" fill="#D9F6F5" stroke="#D9F6F5" stroke-width="2.65507" stroke-linecap="round" stroke-linejoin="round"/>
</svg>
