<svg width="509" height="114" viewBox="0 0 509 114" fill="none" xmlns="http://www.w3.org/2000/svg">
<path d="M44.5059 61.1104C46.6131 50.173 55.2426 43.751 68.2873 43.751C83.6398 43.751 91.7676 51.6781 91.7676 66.6293V84.7915C91.7676 87.9021 93.0721 88.7048 95.0789 88.7048H97.0858V98.1371L94.0755 98.2375C89.9614 98.2375 81.4322 98.3378 80.4288 90.1097C78.0206 95.3275 72 99.3412 62.7684 99.3412C52.132 99.3412 43.7031 93.6217 43.7031 84.1894C43.7031 73.854 51.3292 70.5427 63.7718 68.0341L78.723 65.0238C78.6226 56.9963 75.211 53.0829 68.2873 53.0829C62.668 53.0829 59.0557 56.0932 57.7512 61.9132L44.5059 61.1104ZM57.0488 83.788C57.0488 87.4004 60.0591 90.21 66.2804 90.21C73.5051 90.21 78.9237 84.9921 78.9237 74.4561V73.854L68.8893 75.6602C62.1663 76.9647 57.0488 77.6671 57.0488 83.788Z" fill="#D9F6F5"/>
<path d="M98.5588 71.5461C98.5588 54.6884 108.995 43.751 124.849 43.751C138.495 43.751 149.634 52.9826 149.834 71.8472L149.935 75.0581H112.105C112.707 83.8884 117.323 89.1062 124.849 89.1062C129.665 89.1062 133.98 86.397 135.887 81.7812L149.132 82.7846C146.021 93.0196 136.388 99.3412 124.849 99.3412C108.995 99.3412 98.5588 88.4038 98.5588 71.5461ZM112.306 66.4286H136.489C135.485 57.3977 130.468 53.986 124.849 53.986C117.825 53.986 113.309 58.7022 112.306 66.4286Z" fill="#D9F6F5"/>
<path d="M187.433 61.9132C186.53 56.6953 181.714 53.4843 176.697 53.4843C171.78 53.4843 167.866 56.0932 167.967 60.3077C168.067 64.6224 173.385 66.529 178.603 67.432C193.053 69.8403 201.18 73.6533 201.18 83.8884C201.18 94.4244 190.945 99.3412 178.503 99.3412C163.953 99.3412 154.119 92.5179 153.317 81.2794L166.462 80.577C167.465 86.0959 171.579 89.5076 178.302 89.5076C182.516 89.5076 187.835 87.9021 187.835 83.5873C187.734 78.4698 181.914 77.6671 176.496 76.463C163.451 73.854 154.521 70.5427 154.521 60.5084C154.521 50.0726 163.251 43.6507 177.399 43.6507C189.942 43.6507 198.872 50.474 200.578 61.3111L187.433 61.9132Z" fill="#D9F6F5"/>
<path d="M210.53 32.9139H223.575V44.9551H237.623V54.9895H223.575V81.7812C223.575 85.8952 225.582 88.0024 229.596 88.0024H237.623V98.1371H227.388C216.451 98.1371 210.53 92.6182 210.53 81.7812V54.9895H202.202V44.9551H210.53V32.9139Z" fill="#D9F6F5"/>
<path d="M237.991 44.9551H250.734L264.782 84.4904L278.429 44.9551H291.072L269.9 103.756C267.692 110.279 263.277 113.189 256.153 113.189H247.423V103.255H253.945C256.855 103.255 258.461 102.251 259.564 99.843L261.07 96.0299H257.257L237.991 44.9551Z" fill="#D9F6F5"/>
<path d="M327.389 64.5221C326.385 57.8994 321.669 54.2871 316.05 54.2871C307.822 54.2871 303.106 60.6087 303.106 71.5461C303.106 82.4836 307.822 88.8052 316.05 88.8052C321.97 88.8052 326.686 85.0925 327.69 77.9681L341.136 78.5702C339.631 91.4141 329.195 99.3412 316.05 99.3412C300.196 99.3412 289.76 88.4038 289.76 71.5461C289.76 54.6884 300.196 43.751 316.05 43.751C328.794 43.751 339.33 51.3771 340.734 63.8197L327.389 64.5221Z" fill="#D9F6F5"/>
<path d="M369.828 99.3412C353.974 99.3412 343.538 88.4038 343.538 71.5461C343.538 54.6884 353.974 43.751 369.828 43.751C385.682 43.751 396.118 54.6884 396.118 71.5461C396.118 88.4038 385.682 99.3412 369.828 99.3412ZM356.883 71.5461C356.883 82.4836 361.6 88.8052 369.828 88.8052C378.056 88.8052 382.772 82.4836 382.772 71.5461C382.772 60.6087 378.056 54.2871 369.828 54.2871C361.6 54.2871 356.883 60.6087 356.883 71.5461Z" fill="#D9F6F5"/>
<path d="M450.945 26.8933V98.1371H438.603L438.302 90.6114C435.392 96.0299 429.271 99.3412 422.046 99.3412C408.199 99.3412 399.569 88.6045 399.569 71.5461C399.569 54.4877 408.199 43.751 422.046 43.751C428.87 43.751 434.89 46.8616 437.901 52.0795V26.8933H450.945ZM412.915 71.5461C412.915 82.0822 418.033 88.9055 425.859 88.9055C433.787 88.9055 438.804 82.0822 438.804 71.5461C438.804 60.709 433.686 53.8857 425.859 53.8857C417.932 53.8857 412.915 60.709 412.915 71.5461Z" fill="#D9F6F5"/>
<path d="M456.875 71.5461C456.875 54.6884 467.311 43.751 483.165 43.751C496.812 43.751 507.95 52.9826 508.15 71.8472L508.251 75.0581H470.421C471.023 83.8884 475.639 89.1062 483.165 89.1062C487.981 89.1062 492.296 86.397 494.203 81.7812L507.448 82.7846C504.337 93.0196 494.704 99.3412 483.165 99.3412C467.311 99.3412 456.875 88.4038 456.875 71.5461ZM470.622 66.4286H494.805C493.801 57.3977 488.784 53.986 483.165 53.986C476.141 53.986 471.625 58.7022 470.622 66.4286Z" fill="#D9F6F5"/>
<path d="M25.6394 2L21.8829 16.7973C21.4245 18.603 21.1952 19.5058 20.7429 20.2439C20.3426 20.897 19.8176 21.4538 19.2017 21.8785C18.5059 22.3582 17.6546 22.6014 15.9521 23.0875L2.00039 27.0716L15.9521 31.0558C17.6546 31.5419 18.5059 31.7851 19.2017 32.2648C19.8176 32.6893 20.3426 33.2462 20.7429 33.8995C21.1952 34.6374 21.4245 35.5403 21.8829 37.346L25.6394 52.1433L29.3958 37.346C29.8542 35.5403 30.0835 34.6374 30.5358 33.8995C30.9362 33.2462 31.4611 32.6893 32.0769 32.2648C32.7728 31.7851 33.6241 31.5419 35.3266 31.0558L49.2783 27.0716L35.3266 23.0875C33.6241 22.6014 32.7728 22.3582 32.0769 21.8785C31.4611 21.4538 30.9362 20.897 30.5358 20.2439C30.0835 19.5058 29.8542 18.603 29.3958 16.7973L25.6394 2Z" fill="#D9F6F5" stroke="#D9F6F5" stroke-width="2.29064" stroke-linecap="round" stroke-linejoin="round"/>
</svg>
