<svg width="30" height="30" viewBox="0 0 44 44" fill="none" xmlns="http://www.w3.org/2000/svg">
<path d="M1.875 26C1.875 18.4576 1.875 14.6863 4.21814 12.3431C6.5613 10 10.3325 10 17.875 10H25.875C33.4174 10 37.1888 10 39.5318 12.3431C41.875 14.6863 41.875 18.4576 41.875 26C41.875 33.5424 41.875 37.3138 39.5318 39.6568C37.1888 42 33.4174 42 25.875 42H17.875C10.3325 42 6.5613 42 4.21814 39.6568C1.875 37.3138 1.875 33.5424 1.875 26Z" stroke="#E8E7EB" stroke-width="3"/>
<path d="M29.875 10C29.875 6.22876 29.875 4.34314 28.7034 3.17158C27.5318 2 25.6462 2 21.875 2C18.1038 2 16.2181 2 15.0466 3.17158C13.875 4.34314 13.875 6.22876 13.875 10" stroke="#E8E7EB" stroke-width="3"/>
<path d="M21.875 32.6666C24.0842 32.6666 25.875 31.1742 25.875 29.3334C25.875 27.4924 24.0842 26 21.875 26C19.6658 26 17.875 24.5076 17.875 22.6666C17.875 20.8258 19.6658 19.3334 21.875 19.3334M21.875 32.6666C19.6658 32.6666 17.875 31.1742 17.875 29.3334M21.875 32.6666V34M21.875 19.3334V18M21.875 19.3334C24.0842 19.3334 25.875 20.8258 25.875 22.6666" stroke="#E8E7EB" stroke-width="3" stroke-linecap="round"/>
</svg>
