<svg width="30" height="30" viewBox="0 0 41 40" fill="none" xmlns="http://www.w3.org/2000/svg">
<path fill-rule="evenodd" clip-rule="evenodd" d="M37.5417 20C37.5417 29.2047 30.0797 36.6667 20.875 36.6667C11.6702 36.6667 4.20833 29.2047 4.20833 20C4.20833 10.7952 11.6702 3.33333 20.875 3.33333C30.0797 3.33333 37.5417 10.7952 37.5417 20ZM40.875 20C40.875 31.0458 31.9208 40 20.875 40C9.82931 40 0.875 31.0458 0.875 20C0.875 8.95431 9.82931 0 20.875 0C31.9208 0 40.875 8.95431 40.875 20ZM15.0417 16.6667C16.4224 16.6667 17.5417 15.5474 17.5417 14.1667C17.5417 12.786 16.4224 11.6667 15.0417 11.6667C13.661 11.6667 12.5417 12.786 12.5417 14.1667C12.5417 15.5474 13.661 16.6667 15.0417 16.6667ZM29.2083 14.1667C29.2083 15.5474 28.089 16.6667 26.7083 16.6667C25.3277 16.6667 24.2083 15.5474 24.2083 14.1667C24.2083 12.786 25.3277 11.6667 26.7083 11.6667C28.089 11.6667 29.2083 12.786 29.2083 14.1667ZM20.875 26.6667C16.8268 26.6667 14.2083 24.1002 14.2083 21.6667H10.875C10.875 26.5969 15.7184 30 20.875 30C26.0317 30 30.875 26.5969 30.875 21.6667H27.5417C27.5417 24.1002 24.9232 26.6667 20.875 26.6667Z" fill="#E8E7EB"/>
</svg>
