<svg width="31" height="30" viewBox="0 0 31 30" fill="none" xmlns="http://www.w3.org/2000/svg">
<path d="M7.76809 10.0077C7.91568 8.878 9.43275 7.34268 10.6367 7.51304L10.6348 7.51118C11.8065 7.72665 12.734 9.67826 13.257 10.5558C13.6276 11.1925 13.387 11.8376 13.0413 12.1098C12.575 12.4735 11.8459 12.9754 11.9988 13.4792C12.2708 14.375 15.5 17.5 17.0882 18.3884C17.6894 18.7246 18.1253 17.8377 18.4976 17.3834C18.768 17.0339 19.4352 16.825 20.0916 17.17C21.072 17.7225 21.9955 18.3646 22.8496 19.0875C23.2761 19.4325 23.3762 19.9424 23.0807 20.4812C22.5601 21.4304 21.0546 22.682 19.9617 22.4276C18.0529 21.9835 10.3333 19.0875 7.85376 10.6975C7.71431 10.3006 7.74942 10.1506 7.76809 10.0077Z" fill="#222222"/>
<path fill-rule="evenodd" clip-rule="evenodd" d="M15.5003 28.75C13.9198 28.75 13.0454 28.5859 11.6253 28.125L8.90563 29.441C7.18796 30.2721 5.16699 29.0634 5.16699 27.2049V24.375C2.38545 21.865 1.29199 18.9709 1.29199 15C1.29199 7.40609 7.65328 1.25 15.5003 1.25C23.3473 1.25 29.7087 7.40609 29.7087 15C29.7087 22.5939 23.3473 28.75 15.5003 28.75ZM7.75033 23.2879L6.92876 22.5465C4.7677 20.5965 3.87533 18.4164 3.87533 15C3.87533 8.7868 9.08002 3.75 15.5003 3.75C21.9207 3.75 27.1253 8.7868 27.1253 15C27.1253 21.2132 21.9207 26.25 15.5003 26.25C14.2271 26.25 13.63 26.1388 12.4468 25.7547L11.4296 25.4246L7.75033 27.2049V23.2879Z" fill="#222222"/>
</svg>
